<?xml version="1.0" standalone="no"?>
<!DOCTYPE svg PUBLIC "-//W3C//DTD SVG 20010904//EN"
 "http://www.w3.org/TR/2001/REC-SVG-20010904/DTD/svg10.dtd">
<svg version="1.0" xmlns="http://www.w3.org/2000/svg"
 width="432.000000pt" height="432.000000pt" viewBox="0 0 432.000000 432.000000"
 preserveAspectRatio="xMidYMid meet">
<metadata>
Created by potrace 1.11, written by Peter Selinger 2001-2013
</metadata>
<g transform="translate(0.000000,432.000000) scale(0.100000,-0.100000)"
fill="#000000" stroke="none">
<path d="M2380 3789 c-161 -15 -313 -79 -471 -199 l-92 -70 -31 21 c-17 11
-65 37 -106 57 l-75 37 -161 0 -161 0 -76 -39 c-95 -48 -176 -120 -246 -220
-47 -65 -60 -78 -95 -86 -186 -48 -288 -101 -391 -204 -55 -55 -83 -93 -116
-161 l-44 -88 0 -181 0 -181 39 -77 c45 -90 130 -187 221 -252 63 -46 64 -46
70 -103 35 -313 188 -519 454 -610 64 -22 94 -27 191 -27 100 -1 128 3 212 28
l98 30 63 -61 c95 -92 210 -160 343 -205 62 -21 87 -23 244 -23 154 0 184 3
247 23 191 60 350 183 443 343 54 91 58 94 127 80 306 -61 656 108 801 387 68
130 94 236 95 377 1 240 -76 420 -247 582 -91 86 -156 125 -290 174 l-89 32
-49 105 c-62 133 -102 192 -180 272 -182 183 -435 267 -728 239z m338 -68
c258 -75 467 -274 547 -519 20 -62 31 -70 155 -115 240 -85 408 -268 476 -517
24 -88 24 -272 0 -355 -43 -152 -105 -254 -217 -359 -166 -156 -387 -222 -607
-182 -46 8 -90 12 -98 9 -8 -3 -37 -44 -66 -92 -142 -238 -383 -374 -663 -374
-220 -1 -403 82 -567 257 -57 60 -58 61 -90 47 -117 -46 -148 -54 -244 -59
-199 -9 -311 29 -441 152 -129 122 -188 245 -200 420 -3 50 -10 97 -16 104 -5
7 -26 20 -46 29 -20 9 -72 53 -116 97 -122 124 -175 241 -175 392 0 171 47
280 173 401 95 91 188 143 302 169 118 27 116 26 157 95 75 125 210 229 343
264 148 38 328 -1 443 -98 50 -42 57 -41 130 22 161 138 283 200 462 235 63
12 286 -2 358 -23z"/>
<path d="M1993 3249 c-391 -60 -796 -292 -1168 -669 l-90 -91 70 -66 c324
-305 723 -528 1080 -603 127 -27 375 -37 500 -21 396 51 817 266 1180 603 l70
65 -140 139 c-356 353 -680 549 -1045 629 -90 19 -367 28 -457 14z m270 -131
c155 -272 322 -558 327 -558 3 0 38 59 79 131 54 97 76 127 82 116 6 -10 -42
-102 -166 -317 -96 -166 -175 -304 -175 -306 0 -2 68 -4 151 -4 116 0 150 -3
147 -12 -4 -10 -86 -14 -356 -16 -194 -1 -352 -6 -352 -10 0 -4 31 -61 69
-127 38 -66 68 -122 66 -124 -14 -14 -50 40 -200 303 -94 163 -172 296 -175
296 -3 0 -38 -59 -79 -131 -54 -96 -76 -127 -83 -116 -5 11 33 86 130 254 76
131 155 268 176 306 l38 67 -152 0 c-117 0 -151 3 -148 13 4 9 86 13 356 15
194 1 352 4 352 6 0 2 -31 59 -70 126 -38 67 -70 124 -70 126 0 2 7 4 15 4 8
0 25 -19 38 -42z m-788 -194 c-73 -121 -111 -289 -102 -453 7 -143 55 -289
129 -394 l20 -29 -62 32 c-173 87 -396 241 -407 280 -4 14 -8 85 -8 158 l0
134 45 39 c75 64 192 149 307 221 59 37 109 68 110 68 1 0 -14 -25 -32 -56z
m1427 25 c99 -58 233 -152 315 -221 l81 -69 7 -72 c3 -40 1 -115 -4 -167 -6
-52 -11 -100 -11 -107 0 -26 -278 -201 -414 -263 l-62 -28 43 66 c49 74 95
187 113 277 18 84 15 246 -5 335 -18 77 -83 230 -112 262 -23 26 -11 22 49
-13z"/>
<path d="M1241 2764 c0 -11 3 -14 6 -6 3 7 2 16 -1 19 -3 4 -6 -2 -5 -13z"/>
<path d="M1231 2714 c0 -11 3 -14 6 -6 3 7 2 16 -1 19 -3 4 -6 -2 -5 -13z"/>
<path d="M1222 2655 c0 -16 2 -22 5 -12 2 9 2 23 0 30 -3 6 -5 -1 -5 -18z"/>
<path d="M1212 2535 c0 -16 2 -22 5 -12 2 9 2 23 0 30 -3 6 -5 -1 -5 -18z"/>
<path d="M1222 2415 c0 -16 2 -22 5 -12 2 9 2 23 0 30 -3 6 -5 -1 -5 -18z"/>
<path d="M1231 2344 c0 -11 3 -14 6 -6 3 7 2 16 -1 19 -3 4 -6 -2 -5 -13z"/>
<path d="M1241 2304 c0 -11 3 -14 6 -6 3 7 2 16 -1 19 -3 4 -6 -2 -5 -13z"/>
<path d="M1251 2264 c0 -11 3 -14 6 -6 3 7 2 16 -1 19 -3 4 -6 -2 -5 -13z"/>
<path d="M3101 2754 c0 -11 3 -14 6 -6 3 7 2 16 -1 19 -3 4 -6 -2 -5 -13z"/>
<path d="M3111 2714 c0 -11 3 -14 6 -6 3 7 2 16 -1 19 -3 4 -6 -2 -5 -13z"/>
<path d="M3122 2655 c0 -16 2 -22 5 -12 2 9 2 23 0 30 -3 6 -5 -1 -5 -18z"/>
<path d="M3133 2520 c0 -41 2 -58 4 -37 2 20 2 54 0 75 -2 20 -4 3 -4 -38z"/>
<path d="M3122 2390 c0 -14 2 -19 5 -12 2 6 2 18 0 25 -3 6 -5 1 -5 -13z"/>
<path d="M3112 2330 c0 -14 2 -19 5 -12 2 6 2 18 0 25 -3 6 -5 1 -5 -13z"/>
<path d="M3101 2284 c0 -11 3 -14 6 -6 3 7 2 16 -1 19 -3 4 -6 -2 -5 -13z"/>
<path d="M3081 2223 c-1 -6 -4 -20 -7 -30 -5 -17 -5 -17 6 0 6 10 9 23 6 30
-3 9 -5 9 -5 0z"/>
<path d="M1330 1333 c-62 -22 -142 -105 -163 -167 -35 -102 -13 -220 53 -286
61 -61 134 -90 228 -90 47 0 98 7 127 17 56 19 121 79 150 138 23 48 32 169
16 218 -19 57 -74 120 -132 152 -47 25 -66 30 -144 32 -64 2 -103 -2 -135 -14z
m230 -54 c91 -41 140 -112 140 -202 0 -69 -20 -118 -70 -166 -41 -40 -118 -71
-174 -71 -53 0 -129 27 -170 62 -43 35 -86 117 -86 164 0 38 25 113 48 139 27
32 88 76 119 85 53 16 145 11 193 -11z"/>
<path d="M735 981 c-144 -67 -170 -269 -46 -359 121 -88 280 -53 345 75 18 37
21 137 5 180 -27 73 -109 123 -204 123 -37 0 -75 -7 -100 -19z m160 -38 c67
-18 122 -103 110 -172 -8 -47 -57 -109 -101 -127 -128 -54 -269 58 -234 186
15 57 54 98 108 114 44 13 65 13 117 -1z"/>
</g>
</svg>
